<svg width="35" height="35" viewBox="0 0 35 35" fill="none" xmlns="http://www.w3.org/2000/svg">
<path d="M17.5003 2.91666C9.45033 2.91666 2.91699 9.44999 2.91699 17.5C2.91699 25.55 9.45033 32.0833 17.5003 32.0833C25.5503 32.0833 32.0837 25.55 32.0837 17.5C32.0837 9.44999 25.5503 2.91666 17.5003 2.91666ZM17.5003 7.29166C19.9212 7.29166 21.8753 9.24582 21.8753 11.6667C21.8753 14.0875 19.9212 16.0417 17.5003 16.0417C15.0795 16.0417 13.1253 14.0875 13.1253 11.6667C13.1253 9.24582 15.0795 7.29166 17.5003 7.29166ZM17.5003 28C13.8545 28 10.6316 26.1333 8.75033 23.3042C8.79408 20.4021 14.5837 18.8125 17.5003 18.8125C20.4024 18.8125 26.2066 20.4021 26.2503 23.3042C24.3691 26.1333 21.1462 28 17.5003 28Z" fill="black"/>
</svg>
