<svg width="22" height="23" viewBox="0 0 22 23" fill="none" xmlns="http://www.w3.org/2000/svg">
<g clip-path="url(#clip0_150_1589)">
<path d="M9.85723 8.80333H11.6205V6.13966H14.2653V4.36387H11.6205V1.7002H9.85723V4.36387H7.21236V6.13966H9.85723V8.80333ZM6.33074 16.7944C5.36096 16.7944 4.57632 17.5935 4.57632 18.5701C4.57632 19.5468 5.36096 20.3459 6.33074 20.3459C7.30052 20.3459 8.09398 19.5468 8.09398 18.5701C8.09398 17.5935 7.30052 16.7944 6.33074 16.7944ZM15.147 16.7944C14.1772 16.7944 13.3925 17.5935 13.3925 18.5701C13.3925 19.5468 14.1772 20.3459 15.147 20.3459C16.1167 20.3459 16.9102 19.5468 16.9102 18.5701C16.9102 17.5935 16.1167 16.7944 15.147 16.7944ZM6.48062 13.9087L6.50707 13.8022L7.30052 12.3549H13.8686C14.5298 12.3549 15.1117 11.9909 15.4114 11.4404L18.8145 5.21625L17.2805 4.36387H17.2717L16.3019 6.13966L13.8686 10.5791H7.67962L7.56501 10.3394L5.59018 6.13966L4.75264 4.36387L3.92392 2.58809H1.04102V4.36387H2.80426L5.97809 11.103L4.7879 13.2783C4.64685 13.5269 4.5675 13.8199 4.5675 14.1307C4.5675 15.1074 5.36096 15.9065 6.33074 15.9065H16.9102V14.1307H6.70102C6.58641 14.1307 6.48062 14.033 6.48062 13.9087Z" fill="white"/>
</g>
<defs>
<clipPath id="clip0_150_1589">
<rect width="21.1589" height="21.3094" fill="white" transform="translate(0.15918 0.8125)"/>
</clipPath>
</defs>
</svg>
