<svg width="88" height="47" viewBox="0 0 88 47" fill="none" xmlns="http://www.w3.org/2000/svg">
<path d="M88 23.5C87.9931 29.7305 85.5282 35.7037 81.146 40.1093C76.7638 44.5149 70.8223 46.993 64.625 47H27.5C27.1353 47 26.7856 46.8544 26.5277 46.5951C26.2699 46.3359 26.125 45.9843 26.125 45.6176C26.125 45.251 26.2699 44.8994 26.5277 44.6402C26.7856 44.3809 27.1353 44.2353 27.5 44.2353H53.6484C49.9968 42.2811 46.9266 39.3876 44.7514 35.8502C42.5761 32.3128 41.3738 28.2584 41.2671 24.101C41.1605 19.9436 42.1534 15.8322 44.1444 12.1868C46.1354 8.54141 49.0532 5.49263 52.5997 3.35188C56.1463 1.21112 60.1944 0.055115 64.3308 0.00192242C68.4671 -0.0512702 72.5434 1.00026 76.1432 3.04911C79.743 5.09796 82.7374 8.07071 84.8205 11.6637C86.9037 15.2567 88.0008 19.3412 88 23.5ZM85.25 23.5C85.25 19.3989 84.0404 15.39 81.7741 11.9801C79.5078 8.57018 76.2866 5.91248 72.5179 4.34308C68.7491 2.77367 64.6021 2.36304 60.6013 3.16312C56.6004 3.96319 52.9254 5.93804 50.0409 8.83792C47.1565 11.7378 45.1921 15.4325 44.3963 19.4547C43.6005 23.477 44.0089 27.6462 45.57 31.435C47.131 35.2239 49.7746 38.4623 53.1664 40.7408C56.5581 43.0192 60.5458 44.2353 64.625 44.2353C70.0932 44.2292 75.3357 42.0426 79.2024 38.1553C83.069 34.268 85.2439 28.9975 85.25 23.5ZM28.875 37.3235C28.875 36.9569 28.7301 36.6053 28.4723 36.3461C28.2144 36.0868 27.8647 35.9412 27.5 35.9412H11C10.6353 35.9412 10.2856 36.0868 10.0277 36.3461C9.76987 36.6053 9.625 36.9569 9.625 37.3235C9.625 37.6901 9.76987 38.0418 10.0277 38.301C10.2856 38.5602 10.6353 38.7059 11 38.7059H27.5C27.8647 38.7059 28.2144 38.5602 28.4723 38.301C28.7301 38.0418 28.875 37.6901 28.875 37.3235ZM19.25 30.4118C18.8853 30.4118 18.5356 30.5574 18.2777 30.8166C18.0199 31.0759 17.875 31.4275 17.875 31.7941C17.875 32.1607 18.0199 32.5123 18.2777 32.7716C18.5356 33.0308 18.8853 33.1765 19.25 33.1765H35.75C36.1147 33.1765 36.4644 33.0308 36.7223 32.7716C36.9801 32.5123 37.125 32.1607 37.125 31.7941C37.125 31.4275 36.9801 31.0759 36.7223 30.8166C36.4644 30.5574 36.1147 30.4118 35.75 30.4118H19.25ZM35.75 23.5C35.75 23.1334 35.6051 22.7818 35.3473 22.5225C35.0894 22.2633 34.7397 22.1176 34.375 22.1176H1.375C1.01033 22.1176 0.660591 22.2633 0.402728 22.5225C0.144866 22.7818 0 23.1334 0 23.5C0 23.8666 0.144866 24.2182 0.402728 24.4775C0.660591 24.7367 1.01033 24.8823 1.375 24.8823H34.375C34.7397 24.8823 35.0894 24.7367 35.3473 24.4775C35.6051 24.2182 35.75 23.8666 35.75 23.5ZM74.25 22.1176H66V6.91176C66 6.54513 65.8551 6.19353 65.5973 5.93428C65.3394 5.67504 64.9897 5.5294 64.625 5.5294C64.2603 5.5294 63.9106 5.67504 63.6527 5.93428C63.3949 6.19353 63.25 6.54513 63.25 6.91176V23.5C63.25 23.8666 63.3949 24.2182 63.6527 24.4775C63.9106 24.7367 64.2603 24.8823 64.625 24.8823H74.25C74.6147 24.8823 74.9644 24.7367 75.2223 24.4775C75.4801 24.2182 75.625 23.8666 75.625 23.5C75.625 23.1334 75.4801 22.7818 75.2223 22.5225C74.9644 22.2633 74.6147 22.1176 74.25 22.1176Z" fill="white"/>
</svg>
