<svg width="87" height="87" viewBox="0 0 87 87" fill="none" xmlns="http://www.w3.org/2000/svg">
<path d="M79.6935 32.3702C79.6935 36.2784 79.6935 40.1696 79.6935 44.0778C79.6935 46.5077 79.6935 48.9205 79.6935 51.3504C79.6935 53.1006 79.7274 54.7998 79.2686 56.5161C78.3511 59.9825 75.7003 62.9221 72.3868 64.2645C70.7556 64.9272 69.0563 65.1141 67.3231 65.1141C64.0097 65.1141 60.7132 65.1141 57.3997 65.1141C46.9325 65.1141 36.4653 65.1141 25.9981 65.1141C23.6702 65.1141 21.3423 65.1141 19.0144 65.1141C15.497 65.1141 12.2685 63.5168 9.99151 60.8661C8.13936 58.725 7.30674 55.9213 7.30674 53.1176C7.30674 46.2018 7.30674 39.286 7.30674 32.3702C7.30674 30.7219 4.75791 30.7219 4.75791 32.3702C4.75791 36.2784 4.75791 40.1696 4.75791 44.0778C4.75791 46.5077 4.75791 48.9205 4.75791 51.3504C4.75791 53.1686 4.74092 54.9528 5.14873 56.7539C6.62705 63.245 12.7103 67.6629 19.2522 67.6629C22.1409 67.6629 25.0466 67.6629 27.9353 67.6629C38.4534 67.6629 48.9546 67.6629 59.4728 67.6629C62.2595 67.6629 65.0462 67.6629 67.8329 67.6629C74.6638 67.6629 80.713 62.8371 82.0044 56.0912C82.3102 54.46 82.2593 52.7948 82.2593 51.1465C82.2593 48.7336 82.2593 46.3207 82.2593 43.9248C82.2593 40.0846 82.2593 36.2274 82.2593 32.3871C82.2423 30.7219 79.6935 30.7219 79.6935 32.3702Z" fill="white"/>
<path d="M66.6773 61.4608C59.2347 61.4608 51.7921 61.4608 44.3495 61.4608C36.3632 61.4608 28.3939 61.4608 20.4076 61.4608C17.4339 61.4608 14.8001 59.8635 13.3558 57.2977C12.5062 55.7684 12.4212 54.1201 12.4212 52.4209C12.4212 47.986 12.4212 43.568 12.4212 39.133C12.4212 34.2223 12.4212 29.3116 12.4212 24.3838C12.4212 23.4492 12.4042 22.5147 12.4212 21.5971C12.4722 17.8928 15.2759 14.8342 18.8103 14.0696C19.7618 13.8656 20.7814 13.9336 21.7499 13.9336C23.2962 13.9336 24.8425 13.9336 26.4058 13.9336C31.4355 13.9336 36.4482 13.9336 41.4779 13.9336C49.804 13.9336 58.1302 13.9336 66.4394 13.9336C68.9712 13.9336 71.2142 14.9531 72.8454 16.9072C74.2048 18.5045 74.5617 20.5266 74.5617 22.5487C74.5617 26.7287 74.5617 30.9088 74.5617 35.0889C74.5617 40.1526 74.5617 45.2162 74.5617 50.2799C74.5617 51.3504 74.5617 52.4379 74.5617 53.5084C74.5617 56.669 72.6415 59.6596 69.6849 60.8661C68.7333 61.2569 67.7138 61.4438 66.6773 61.4608C65.029 61.4778 65.029 64.0266 66.6773 64.0096C70.6365 63.9586 74.2728 61.7327 76.057 58.1813C76.9406 56.3971 77.1275 54.511 77.1275 52.5569C77.1275 48.1899 77.1275 43.8399 77.1275 39.4729C77.1275 34.5112 77.1275 29.5494 77.1275 24.5877C77.1275 23.6701 77.1275 22.7526 77.1275 21.835C77.1275 17.9608 74.9185 14.3584 71.5031 12.5572C68.6484 11.0449 65.3009 11.3848 62.1913 11.3848C57.4335 11.3848 52.6587 11.3848 47.9009 11.3848C38.963 11.3848 30.0421 11.3848 21.1042 11.3848C19.3031 11.3848 17.6038 11.6397 15.9386 12.3703C12.3193 13.9506 10.0593 17.7229 9.90638 21.5971C9.78743 24.6727 9.90638 27.7823 9.90638 30.8748C9.90638 36.2614 9.90638 41.6479 9.90638 47.0344C9.90638 48.8356 9.90638 50.6198 9.90638 52.4209C9.90638 54.2731 10.0423 56.0403 10.807 57.7735C12.4042 61.4268 15.9556 63.7547 19.8978 63.9926C20.6285 64.0436 21.3931 64.0096 22.1238 64.0096C26.1169 64.0096 30.1271 64.0096 34.1202 64.0096C44.0267 64.0096 53.9331 64.0096 63.8396 64.0096C64.7911 64.0096 65.7427 64.0096 66.6943 64.0096C68.3085 64.0096 68.3085 61.4608 66.6773 61.4608Z" fill="white"/>
<path d="M66.6773 61.4608C59.2347 61.4608 51.7921 61.4608 44.3495 61.4608C36.3632 61.4608 28.3939 61.4608 20.4076 61.4608C17.4339 61.4608 14.8001 59.8635 13.3558 57.2977C12.0644 55.0037 12.4212 52.183 12.4212 49.6512C12.4212 46.2528 14.4943 43.1772 17.7228 42.0557C18.9462 41.6309 20.1697 41.6139 21.4441 41.6139C30.6369 41.6139 39.8466 41.6139 49.0394 41.6139C53.6443 41.6139 58.2662 41.6139 62.871 41.6139C64.0095 41.6139 65.131 41.6139 66.2695 41.6139C68.4615 41.6139 70.4665 42.2596 72.0808 43.7719C73.6611 45.2502 74.5447 47.3572 74.5447 49.5153C74.5447 50.8237 74.5447 52.1151 74.5447 53.4235C74.5787 57.8244 71.0952 61.4098 66.6773 61.4608C65.029 61.4778 65.029 64.0266 66.6773 64.0096C70.6365 63.9586 74.2728 61.7326 76.057 58.1813C77.3654 55.5475 77.1275 52.6588 77.1275 49.8041C77.1275 46.1508 75.4622 42.8883 72.4546 40.7983C70.6195 39.5238 68.4275 39.0651 66.2185 39.0651C57.5695 39.0651 48.9374 39.0651 40.2884 39.0651C35.3947 39.0651 30.4839 39.0651 25.5902 39.0651C22.8374 39.0651 19.6939 38.7252 17.0431 39.5918C13.3388 40.7813 10.5351 44.1287 9.99135 47.986C9.82143 49.2094 9.8724 50.4498 9.8724 51.6903C9.8724 52.9817 9.85541 54.2391 10.0593 55.5135C10.705 59.3877 13.7806 62.5143 17.4679 63.6018C18.7763 63.9926 20.1017 63.9926 21.4441 63.9926C30.6369 63.9926 39.8466 63.9926 49.0394 63.9926C54.9187 63.9926 60.781 63.9926 66.6603 63.9926C68.3085 64.0096 68.3085 61.4608 66.6773 61.4608Z" fill="white"/>
<path d="M80.6114 31.0957C79.0142 31.0957 77.4339 31.0957 75.8366 31.0957C76.2614 31.5205 76.6862 31.9453 77.111 32.3702C77.111 31.2827 77.111 30.1782 77.111 29.0907C77.111 27.5784 77.7058 26.3719 79.303 26.0321C80.6624 25.7432 82.3956 26.185 82.9563 27.5614C83.653 29.2606 82.4126 31.0448 80.6114 31.0957C78.9632 31.1467 78.9632 33.6955 80.6114 33.6446C83.5001 33.5596 85.777 31.2487 85.6921 28.326C85.6071 25.3524 83.0073 23.4662 80.2206 23.4662C78.9632 23.4662 77.7907 23.6532 76.7372 24.4008C75.5308 25.2504 74.7321 26.6098 74.6132 28.0881C74.4942 29.4985 74.5792 30.9428 74.5792 32.3702C74.5792 33.0668 75.1569 33.6446 75.8536 33.6446C77.4509 33.6446 79.0312 33.6446 80.6284 33.6446C82.2597 33.6446 82.2597 31.0957 80.6114 31.0957Z" fill="white"/>
<path d="M12.4217 32.3701C12.4217 30.2291 12.7955 27.6973 11.606 25.7942C9.77088 22.8545 5.04705 22.6676 2.70213 25.0295C-0.101583 27.8332 1.58064 32.727 5.35291 33.5256C6.32146 33.7295 7.37498 33.6276 8.34353 33.6276C9.27811 33.6276 10.2127 33.6276 11.1472 33.6276C12.7955 33.6276 12.7955 31.0787 11.1472 31.0787C9.63494 31.0787 8.13963 31.0787 6.62732 31.0787C5.70975 31.0787 4.86014 30.7899 4.29939 30.0082C3.60271 29.0227 3.72166 27.7143 4.5033 26.8307C5.87967 25.3014 9.0742 25.7942 9.75389 27.7652C9.99178 28.4789 9.87283 29.3795 9.87283 30.1272C9.87283 30.8748 9.87283 31.6225 9.87283 32.3701C9.87283 34.0184 12.4217 34.0184 12.4217 32.3701Z" fill="white"/>
<path d="M70.7559 65.7428C70.7559 67.425 70.7559 69.1242 70.7559 70.8065C70.7559 72.5567 71.0957 74.7656 68.9377 75.3774C67.6463 75.7512 66.4059 74.8336 66.066 73.6272C65.8961 72.9984 65.998 72.2168 65.998 71.5881C65.998 69.8549 65.998 68.1217 65.998 66.4055C65.998 64.7572 63.4492 64.7572 63.4492 66.4055C63.4492 68.3936 63.4492 70.3817 63.4492 72.3697C63.4492 73.5252 63.5682 74.5957 64.1629 75.6322C65.1484 77.3654 67.2385 78.249 69.1756 77.9432C71.0617 77.6543 72.4721 76.2949 73.0838 74.5447C73.3897 73.6611 73.3047 72.6416 73.3047 71.724C73.3047 69.736 73.3047 67.7649 73.3047 65.7768C73.3047 64.1115 70.7559 64.1115 70.7559 65.7428Z" fill="white"/>
<path d="M21.0024 66.3885C21.0024 68.1217 21.0024 69.8549 21.0024 71.5711C21.0024 72.1658 21.0704 72.8115 20.9854 73.4062C20.7645 74.7996 19.4221 75.6832 18.0628 75.3773C15.8878 74.9016 16.2446 72.4717 16.2446 70.8064C16.2446 69.1242 16.2446 67.425 16.2446 65.7428C16.2446 64.0945 13.6958 64.0945 13.6958 65.7428C13.6958 67.7309 13.6958 69.7019 13.6958 71.69C13.6958 72.5736 13.6618 73.4402 13.8487 74.3068C14.2565 76.176 15.9727 77.6373 17.8249 77.9262C19.796 78.232 21.5632 77.3654 22.7186 75.8021C23.4663 74.7996 23.5512 73.5592 23.5512 72.3527C23.5512 70.3646 23.5512 68.3766 23.5512 66.3885C23.5512 64.7402 21.0024 64.7402 21.0024 66.3885Z" fill="white"/>
<path d="M22.124 20.7645C22.124 23.4152 22.124 26.066 22.124 28.7168C22.124 30.365 24.6729 30.365 24.6729 28.7168C24.6729 26.066 24.6729 23.4152 24.6729 20.7645C24.6729 19.1332 22.124 19.1332 22.124 20.7645Z" fill="white"/>
<path d="M19.4227 26.015C22.0735 26.015 24.7243 26.015 27.375 26.015C29.0233 26.015 29.0233 23.4662 27.375 23.4662C24.7243 23.4662 22.0735 23.4662 19.4227 23.4662C17.7745 23.4662 17.7745 26.015 19.4227 26.015Z" fill="white"/>
<path d="M62.3271 20.7645C62.3271 23.4152 62.3271 26.066 62.3271 28.7168C62.3271 30.365 64.876 30.365 64.876 28.7168C64.876 26.066 64.876 23.4152 64.876 20.7645C64.876 19.1332 62.3271 19.1332 62.3271 20.7645Z" fill="white"/>
<path d="M59.6258 26.015C62.2766 26.015 64.9274 26.015 67.5781 26.015C69.2264 26.015 69.2264 23.4662 67.5781 23.4662C64.9274 23.4662 62.2766 23.4662 59.6258 23.4662C57.9945 23.4662 57.9945 26.015 59.6258 26.015Z" fill="white"/>
</svg>
