<svg width="25" height="25" viewBox="0 0 25 25" fill="none" xmlns="http://www.w3.org/2000/svg">
<path d="M10.1074 12.5C10.1074 13.8214 11.1786 14.8926 12.5 14.8926C13.8214 14.8926 14.8926 13.8214 14.8926 12.5C14.8926 11.1786 13.8214 10.1074 12.5 10.1074C11.1786 10.1074 10.1074 11.1786 10.1074 12.5Z" fill="white"/>
<path d="M6.90482 8.26691C7.01983 7.95525 7.20332 7.67316 7.44173 7.4416C7.67329 7.20319 7.95519 7.0197 8.26704 6.90469C8.51996 6.80646 8.8999 6.68954 9.59971 6.65768C10.3567 6.62316 10.5837 6.61572 12.5002 6.61572C14.4169 6.61572 14.6439 6.62297 15.4007 6.65749C16.1005 6.68954 16.4807 6.80646 16.7334 6.90469C17.0452 7.0197 17.3273 7.20319 17.5587 7.4416C17.7971 7.67316 17.9806 7.95506 18.0958 8.26691C18.194 8.51983 18.311 8.89996 18.3428 9.59977C18.3773 10.3566 18.3848 10.5836 18.3848 12.5003C18.3848 14.4168 18.3773 14.6438 18.3428 15.4008C18.311 16.1006 18.194 16.4805 18.0958 16.7334C17.9806 17.0453 17.7973 17.3272 17.5589 17.5588C17.3273 17.7972 17.0454 17.9807 16.7336 18.0957C16.4807 18.1941 16.1005 18.311 15.4007 18.3429C14.6439 18.3774 14.4171 18.3846 12.5004 18.3846C10.5835 18.3846 10.3565 18.3774 9.5999 18.3429C8.90009 18.311 8.51996 18.1941 8.26704 18.0957C7.64105 17.8542 7.14629 17.3594 6.90482 16.7334C6.80659 16.4805 6.68967 16.1006 6.65762 15.4008C6.6231 14.6438 6.61585 14.4168 6.61585 12.5003C6.61585 10.5836 6.6231 10.3566 6.65762 9.59977C6.68948 8.89996 6.8064 8.51983 6.90482 8.26691ZM12.5002 16.1858C14.5359 16.1858 16.1862 14.5358 16.1862 12.5001C16.1862 10.4644 14.5359 8.81432 12.5002 8.81432C10.4647 8.81432 8.81445 10.4644 8.81445 12.5001C8.81445 14.5358 10.4647 16.1858 12.5002 16.1858ZM8.66873 9.52996C9.14442 9.52996 9.53009 9.1443 9.53009 8.6686C9.53009 8.19291 9.14442 7.80724 8.66873 7.80724C8.19304 7.80724 7.80737 8.19291 7.80737 8.6686C7.80756 9.1443 8.19304 9.52996 8.66873 9.52996Z" fill="white"/>
<path d="M12.5 0C19.4025 0 25 5.5975 25 12.5C25 19.4025 19.4025 25 12.5 25C5.5975 25 0 19.4025 0 12.5C0 5.5975 5.5975 0 12.5 0ZM5.36556 15.4593C5.40028 16.2233 5.52177 16.745 5.69916 17.2016C6.07204 18.1658 6.83422 18.928 7.79839 19.3008C8.25481 19.4782 8.77666 19.5995 9.54056 19.6344C10.306 19.6693 10.5505 19.6777 12.4998 19.6777C14.4493 19.6777 14.6936 19.6693 15.4593 19.6344C16.2231 19.5995 16.745 19.4782 17.2014 19.3008C17.6805 19.1206 18.1143 18.8381 18.4729 18.4729C18.8379 18.1145 19.1204 17.6805 19.3007 17.2016C19.478 16.7452 19.5995 16.2233 19.6342 15.4594C19.6695 14.6938 19.6777 14.4493 19.6777 12.5C19.6777 10.5507 19.6695 10.3062 19.6344 9.54075C19.5997 8.77666 19.4784 8.255 19.301 7.79839C19.1208 7.31945 18.8381 6.88553 18.4729 6.52714C18.1145 6.16188 17.6805 5.8794 17.2016 5.69916C16.745 5.52177 16.2233 5.40047 15.4593 5.36556C14.6938 5.33066 14.4493 5.32227 12.5 5.32227C10.5507 5.32227 10.3062 5.33066 9.54075 5.36575C8.77666 5.40047 8.255 5.52177 7.79839 5.69897C7.31945 5.87921 6.88553 6.16188 6.52695 6.52714C6.16188 6.88572 5.87921 7.31945 5.69916 7.79839C5.52158 8.255 5.40028 8.77666 5.36537 9.54075C5.33047 10.3062 5.32227 10.5507 5.32227 12.5C5.32227 14.4493 5.33047 14.6938 5.36556 15.4593Z" fill="white"/>
</svg>
