<svg width="62" height="88" viewBox="0 0 62 88" fill="none" xmlns="http://www.w3.org/2000/svg">
<path d="M19.8916 7.3552C19.8916 7.3552 32.9374 -1.70748 35.0041 11.8209" stroke="white" stroke-width="2"/>
<path d="M34.1003 8.14326C34.1003 8.14326 36.4253 3.4149 47.792 4.07161C47.792 7.74923 44.4337 17.0746 39.3962 18.7821C51.667 26.1373 60.7087 47.9403 60.7087 61.0746C60.7087 76.9671 48.6962 85.5044 32.292 85.5044C15.8878 85.5044 1.29199 76.9671 1.29199 61.0746C1.29199 48.0716 10.2045 26.1373 22.6045 18.7821C17.567 17.0746 14.2087 7.74923 14.2087 4.07161C14.2087 4.07161 19.892 9.194 27.1253 9.194" stroke="white" stroke-width="2"/>
<path d="M22.4756 18.3881H41.4631" stroke="white" stroke-width="2"/>
<path d="M41.4629 20.0955C41.4629 20.0955 55.9296 19.7015 55.9296 27.9761" stroke="white" stroke-width="2"/>
<path d="M41.7207 17.6C41.7207 17.6 52.9582 18.2567 59.6749 13.9224" stroke="white" stroke-width="2"/>
<path d="M39.9125 67.6417C38.1042 69.7432 35.7792 70.9253 33.1958 70.9253C27.6417 70.9253 23.25 65.2776 23.25 58.185C23.25 51.2238 27.7708 45.9701 33.1958 45.9701C35.7792 45.9701 37.975 46.7582 39.7833 48.7283" stroke="white" stroke-width="2"/>
<path d="M19.5049 55.0328H34.8757" stroke="white" stroke-width="2"/>
<path d="M18.2129 60.4179H33.5837" stroke="white" stroke-width="2"/>
</svg>
